<?xml version="1.0"?>
<svg xmlns:rdf="http://www.w3.org/1999/02/22-rdf-syntax-ns#" xmlns="http://www.w3.org/2000/svg" xmlns:cc="http://creativecommons.org/ns#" xmlns:xlink="http://www.w3.org/1999/xlink" xmlns:dc="http://purl.org/dc/elements/1.1/" xmlns:svg="http://www.w3.org/2000/svg" id="svg2" viewBox="0 0 64 64" version="1.1">
  <defs id="defs4">
    <filter id="filter4085" color-interpolation-filters="sRGB">
      <feGaussianBlur id="feGaussianBlur4087" stdDeviation="0.2171107"/>
    </filter>
    <filter id="filter4141" color-interpolation-filters="sRGB">
      <feGaussianBlur id="feGaussianBlur4143" stdDeviation="0.17897571"/>
    </filter>
    <filter id="filter4157" width="1.4429" y="-.22393" x="-.22145" height="1.4479" color-interpolation-filters="sRGB">
      <feGaussianBlur id="feGaussianBlur4159" stdDeviation="3.8974153"/>
    </filter>
    <radialGradient id="radialGradient4171" gradientUnits="userSpaceOnUse" cy="1006.3" cx="37.416" gradientTransform="matrix(-1.0038 .059834 -.036645 -.62436 94.232 1646.6)" r="9.7077">
      <stop id="stop4167" stop-color="#fdfdfd" offset="0"/>
      <stop id="stop4169" stop-color="#fdfdfd" stop-opacity="0" offset="1"/>
    </radialGradient>
    <radialGradient id="radialGradient4179" gradientUnits="userSpaceOnUse" cy="1006.4" cx="54.924" gradientTransform="matrix(2.2345 .020008 -.0052047 .59045 -79.356 425.15)" r="10.551">
      <stop id="stop4175" stop-color="#fdfdfd" offset="0"/>
      <stop id="stop4177" stop-color="#fdfdfd" stop-opacity="0" offset="1"/>
    </radialGradient>
    <radialGradient id="radialGradient4189" gradientUnits="userSpaceOnUse" cy="1004.2" cx="46.17" gradientTransform="matrix(33.291 21.672 -4.4973 7.0157 2986.9 -7044.1)" r="3.4497">
      <stop id="stop4185" stop-color="#a8a8a8" offset="0"/>
      <stop id="stop4187" stop-color="#a8a8a8" stop-opacity="0" offset="1"/>
    </radialGradient>
  </defs>
  <g id="layer1" transform="translate(0 -988.36)">
    <path id="path4089" stroke-linejoin="round" d="m10.187 48.05a20.232 20.161 0 1 1 -40.464 0 20.232 20.161 0 1 1 40.464 0z" fill-rule="evenodd" transform="matrix(1.1758 0 0 1.1733 43.472 964.11)" stroke="#9f9d9d" stroke-linecap="round" stroke-width=".36585" fill="#fcfcfc"/>
    <path id="path3741" opacity=".72105" stroke-linejoin="round" d="m31.985 992.08c-15.673 0-28.367 12.65-28.367 28.27s12.693 28.3 28.367 28.3c15.673 0 28.397-12.68 28.397-28.3 0-15.619-12.723-28.27-28.397-28.27zm-0.45214 4.7166c13.061 0 23.634 10.566 23.634 23.583s-10.573 23.554-23.634 23.554-23.664-10.537-23.664-23.554 10.603-23.583 23.664-23.583z" fill-rule="evenodd" stroke="#6a736e" stroke-linecap="round" stroke-miterlimit="0" stroke-width=".21029" fill="url(#radialGradient4189)"/>
    <path id="path3840" opacity=".15789" d="m51.5 44.513a3.3248 3.4663 0 1 1 -6.6497 0 3.3248 3.4663 0 1 1 6.6497 0z" fill-rule="evenodd" transform="matrix(1.0474 0 0 1.0555 -19.393 973.83)" stroke-width="0" fill="#ad9110"/>
    <path id="path3844" style="block-progression:tb;color:#000000;text-transform:none;text-indent:0" fill="#b4a8a8" d="m25.634 998.34v45.218c0.08296 0 0.16918 0 0.25221 0.085v-45.283h-0.25221zm2.3016 0v45.679h0.25221v-45.712h-0.25221zm2.2701 0v45.777h0.2838v-45.777h-0.2838zm2.3016 0v45.777h0.25221v-45.777h-0.25221zm2.3016 0v45.646h0.25221v-45.612h-0.25221zm2.3016 0v45.15c0.08295 0 0.16943 0 0.25221-0.085v-45.085h-0.25221zm-13.559 0.37c-0.07625 0-0.14521 0.0853-0.22071 0.10229v43.965c0.08463 0 0.16708 0.085 0.25221 0.1023v-44.162c-0.0092 0.004-0.02262 0-0.03184 0zm15.828 0.12786v43.898c0.08824 0 0.16457-0.093 0.25221-0.128v-43.635c-0.08765-0.0853-0.16398-0.1023-0.25221-0.1364zm-18.066 0.92149c-0.09544 0.0853-0.18903 0.0853-0.28372 0.12783v41.79c0.09779 0.085 0.18518 0.1194 0.28372 0.1619v-42.087zm20.368 0.20456v41.658c0.08455-0.085 0.16826-0.085 0.25221-0.1279v-41.395c-0.08514-0.085-0.16649-0.085-0.25221-0.13639zm-22.67 1.1534c-0.08212 0.085-0.17077 0.1108-0.25221 0.1705v39.054c0.08296 0.085 0.16867 0.1109 0.25221 0.1621v-39.384zm24.971 0.2984v38.79c0.08648-0.085 0.16666-0.1364 0.25221-0.2046v-38.396c-0.08564-0.085-0.16574-0.1364-0.25221-0.2046zm-27.273 1.5156c-0.08044 0.085-0.17303 0.1278-0.2523 0.2046v35.33c0.08296 0.085 0.16842 0.1619 0.2523 0.2301v-35.758zm29.574 0.3666v35.033c0.08731-0.085 0.16607-0.1875 0.25221-0.2643v-34.539c-0.08212-0.085-0.16926-0.1535-0.25221-0.2388zm-31.876 2.0099c-0.08211 0.093-0.17144 0.2046-0.25221 0.2984v30.42c0.08044 0.1021 0.16984 0.2045 0.25221 0.2982v-31.013zm34.146 0.4604v30.09c0.08044-0.1023 0.17311-0.196 0.25221-0.2984v-29.496c-0.07961-0.1022-0.17152-0.196-0.25221-0.2983zm-36.416 2.7679c-0.08564 0.1534-0.16951 0.2898-0.25221 0.4347v23.664c0.08555 0.1534 0.16348 0.3154 0.25221 0.4603v-24.553zm38.718 0.6904v23.17c0.08295-0.1534 0.17269-0.3155 0.25221-0.4604v-22.278c-0.0771-0.1449-0.17236-0.2899-0.25221-0.4263zm-41.02 4.5818c-0.08698 0.2899-0.17605 0.5883-0.25221 0.8893v12.195c0.076249 0.2985 0.16524 0.5968 0.25221 0.89v-13.974zm43.321 1.5491v10.875c0.09703-0.4347 0.17789-0.8524 0.25221-1.2846v-8.3053c-0.07374-0.4348-0.15644-0.8644-0.25221-1.2854z"/>
    <path id="path4051" opacity=".51053" style="block-progression:tb;color:#000000;text-transform:none;text-indent:0" d="m42.847 984.6v42.875c0.08192 0.021 0.16772 0.042 0.25 0.062v-42.937h-0.25zm2.2812 0v43.312c0.08188 0.012 0.16783 0.02 0.25 0.031v-43.344h-0.25zm2.25 0v43.406h0.28125v-43.406h-0.28125zm2.2812 0v43.406h0.25v-43.406h-0.25zm2.2812 0v43.281c0.08354-0.013 0.16678-0.017 0.25-0.031v-43.25h-0.25zm2.2812 0v42.812c0.08248-0.022 0.1679-0.04 0.25-0.062v-42.75h-0.25zm-13.438 0.34375c-0.07524 0.0276-0.14389 0.0654-0.21875 0.0937v41.688c0.0839 0.032 0.16562 0.063 0.25 0.094v-41.875c-0.0091 0.003-0.02216-0.003-0.03125 0zm15.688 0.125v41.625c0.08742-0.034 0.16311-0.09 0.25-0.125v-41.375c-0.08689-0.0347-0.16258-0.0913-0.25-0.125zm-17.906 0.875c-0.09463 0.047-0.18738 0.0767-0.28125 0.125v39.625c0.09687 0.05 0.18356 0.1077 0.28125 0.1562v-39.906zm20.188 0.1875v39.5c0.08382-0.044 0.16681-0.08 0.25-0.125v-39.25c-0.08436-0.0455-0.16499-0.0806-0.25-0.125zm-22.469 1.0938c-0.08148 0.0533-0.16926 0.10193-0.25 0.15625v37.031c0.08203 0.055 0.1672 0.1021 0.25 0.1563v-37.344zm24.75 0.28125v36.781c0.08568-0.059 0.16519-0.1276 0.25-0.1875v-36.406c-0.08481-0.0599-0.16432-0.12874-0.25-0.1875zm-27.031 1.4375c-0.07949 0.0679-0.17149 0.11852-0.25 0.1875v33.5c0.08201 0.072 0.16693 0.1478 0.25 0.2187v-33.906zm29.312 0.34375v33.219c0.08658-0.077 0.16465-0.1712 0.25-0.25v-32.75c-0.08113-0.0749-0.16776-0.14505-0.25-0.21875zm-31.594 1.9062c-0.08167 0.0929-0.16987 0.18699-0.25 0.28125v28.844c0.08013 0.094 0.16834 0.1883 0.25 0.2812v-29.406zm33.844 0.4375v28.531c0.08007-0.096 0.17152-0.184 0.25-0.2812v-27.969c-0.07848-0.0972-0.16993-0.18537-0.25-0.28125zm-36.094 2.625c-0.0849 0.13813-0.16806 0.26615-0.25 0.40625v22.437c0.08481 0.1453 0.16202 0.2944 0.25 0.4375v-23.281zm38.375 0.65625v21.969c0.08194-0.1442 0.1712-0.2914 0.25-0.4375v-21.125c-0.07622-0.14137-0.17083-0.26673-0.25-0.40625zm-40.656 4.3438c-0.08622 0.27722-0.17443 0.56201-0.25 0.84373v11.562c0.07557 0.2818 0.16378 0.5665 0.25 0.8438v-13.25zm42.938 1.4687v10.312c0.09622-0.4059 0.17632-0.8046 0.25-1.2187v-7.875c-0.0731-0.4076-0.15506-0.8192-0.25-1.2188z" transform="matrix(1.045 0 0 1.0507 -19.226 -37.05)" filter="url(#filter4085)" fill="#282828"/>
    <path id="path4139" stroke-linejoin="round" d="m-2.4052 44.23a18.605 17.19 0 1 1 -37.21 0 18.605 17.19 0 1 1 37.21 0z" fill-opacity="0" transform="matrix(1.4024 0 0 1.5268 61.272 952.69)" filter="url(#filter4141)" stroke="#dad7d7" stroke-linecap="round" stroke-width="1.006"/>
    <path id="path4155" opacity=".22105" stroke-linejoin="round" d="m49.056 985.56c-11.663 0-21.108 9.3408-21.108 20.875s9.4454 20.897 21.108 20.897 21.131-9.363 21.131-20.897-9.4678-20.875-21.131-20.875zm-0.33648 3.4828c9.7192 0 17.587 7.8025 17.587 17.414 0 9.6116-7.8674 17.392-17.587 17.392-9.7192 0-17.609-7.7802-17.609-17.392 0-9.6117 7.8899-17.414 17.609-17.414z" fill-rule="evenodd" transform="matrix(1.0474 0 0 1.0555 -19.393 -41.936)" filter="url(#filter4157)" stroke="#6a736e" stroke-linecap="round" stroke-miterlimit="0" stroke-width=".15666" fill="#090909"/>
    <path id="path4161" opacity=".68421" stroke-width="0" fill="url(#radialGradient4171)" d="m28.284 1020.8-16.556-5.731c-3.865 3.1788-5.6838 6.8587-0.94306 12.143l17.499-6.4121z"/>
    <path id="path4163" opacity=".74737" stroke-width="0" fill="url(#radialGradient4179)" d="m34.152 1020.3 17.994-5.8811c4.2008 3.2633 6.1776 7.0379 1.025 12.461l-19.019-6.58z"/>
  </g>
  <metadata>
    <rdf:RDF>
      <cc:Work>
        <dc:format>image/svg+xml</dc:format>
        <dc:type rdf:resource="http://purl.org/dc/dcmitype/StillImage"/>
        <cc:license rdf:resource="http://creativecommons.org/licenses/publicdomain/"/>
        <dc:publisher>
          <cc:Agent rdf:about="http://openclipart.org/">
            <dc:title>Openclipart</dc:title>
          </cc:Agent>
        </dc:publisher>
        <dc:title>car-headlight</dc:title>
        <dc:date>2010-07-22T12:26:07</dc:date>
        <dc:description>automotive clipart by NetAlloy</dc:description>
        <dc:source>http://openclipart.org/detail/74287/car-headlight-by-netalloy</dc:source>
        <dc:creator>
          <cc:Agent>
            <dc:title>netalloy</dc:title>
          </cc:Agent>
        </dc:creator>
        <dc:subject>
          <rdf:Bag>
            <rdf:li>auto spares</rdf:li>
            <rdf:li>automotive</rdf:li>
            <rdf:li>bike head light</rdf:li>
            <rdf:li>car light</rdf:li>
            <rdf:li>car-headlight</rdf:li>
            <rdf:li>clip art</rdf:li>
            <rdf:li>clipart</rdf:li>
            <rdf:li>light</rdf:li>
            <rdf:li>torch</rdf:li>
          </rdf:Bag>
        </dc:subject>
      </cc:Work>
      <cc:License rdf:about="http://creativecommons.org/licenses/publicdomain/">
        <cc:permits rdf:resource="http://creativecommons.org/ns#Reproduction"/>
        <cc:permits rdf:resource="http://creativecommons.org/ns#Distribution"/>
        <cc:permits rdf:resource="http://creativecommons.org/ns#DerivativeWorks"/>
      </cc:License>
    </rdf:RDF>
  </metadata>
</svg>
