<?xml version="1.0" encoding="utf-8"?>
<!-- Svg Vector Icons : http://www.onlinewebfonts.com/icon -->
<!DOCTYPE svg PUBLIC "-//W3C//DTD SVG 1.1//EN" "http://www.w3.org/Graphics/SVG/1.1/DTD/svg11.dtd">
<svg version="1.1" xmlns="http://www.w3.org/2000/svg" xmlns:xlink="http://www.w3.org/1999/xlink" x="0px" y="0px" viewBox="0 0 1000 1000" enable-background="new 0 0 1000 1000" xml:space="preserve">
<metadata> Svg Vector Icons : http://www.onlinewebfonts.com/icon </metadata>
<g><g transform="translate(0.000000,511.000000) scale(0.100000,-0.100000)"><path d="M3455.1,4987.9c-105.2-31.1-188.9-100.4-239.1-193.7c-40.6-81.3-45.4-143.5-45.4-614.6c0-504.6,2.4-526.1,55-602.6c69.4-105.2,155.4-165,270.2-191.3c50.2-12,365.9-23.9,698.3-23.9h602.6v-203.3v-203.3H3569.9H2345.5l-365.9-365.9c-327.6-327.6-363.5-373.1-363.5-444.8c0-74.1,35.9-119.6,358.7-442.4l356.3-361.1l1234-7.2l1231.6-7.2v-200.9V924.9l-688.7-7.2l-691.1-7.2l-88.5-69.3c-148.3-112.4-157.8-162.6-157.8-750.9c0-504.6,2.4-526.1,55-602.6c28.7-43.1,83.7-102.8,119.6-129.1c64.6-47.8,100.4-50.2,760.5-57.4l691.1-7.2v-1982.5v-1980.1l74.1-62.2c95.7-81.3,177-78.9,263,7.2l69.4,69.3v1975.3v1975.3h1224.4h1224.4L8018-337.8c330,330,365.9,373.1,365.9,447.2c0,74.1-35.9,117.2-365.9,447.2l-365.9,365.9H6427.7H5203.3v203.3v203.3h650.5c609.8,0,655.2,2.4,753.3,50.2c69.3,33.5,124.4,83.7,165,153l59.8,105.2l-7.2,535.7l-7.2,535.7l-67,86.1c-119.6,157.8-129.2,160.2-877.7,160.2h-669.6v203.3v200.9l1219.6,7.2l1219.6,7.2l358.7,358.7c198.5,198.5,365.9,382.6,373.1,411.3c7.2,28.7,7.2,76.5-2.4,107.6c-21.5,67-619.4,679.2-710.3,727c-55,28.7-387.4,33.5-2104.5,31.1C4435.6,5009.5,3488.6,4999.9,3455.1,4987.9z"/></g></g>
</svg>